<svg width="266" height="265" viewBox="0 0 266 265" fill="none" xmlns="http://www.w3.org/2000/svg">
<path d="M264.942 0H0.942322V264H264.942V0Z" fill="#C96442"/>
<path d="M77.9423 155L155.884 264.5H0L77.9423 155Z" fill="#FDFAF4" fill-opacity="0.27"/>
<path d="M150.942 122L265.257 264.5H36.6269L150.942 122Z" fill="#F0EEE6" fill-opacity="0.55"/>
<mask id="mask0_6_91" style="mask-type:luminance" maskUnits="userSpaceOnUse" x="130" y="15" width="86" height="86">
<path d="M170.34 15.8318L130.774 60.9376L175.88 100.504L215.446 55.3979L170.34 15.8318Z" fill="white"/>
</mask>
<g mask="url(#mask0_6_91)">
<path d="M179.945 46.0034L151.011 50.5539C150.031 50.7117 149.154 51.2514 148.571 52.0549C147.988 52.8584 147.747 53.8601 147.901 54.8408C148.055 55.8215 148.592 56.7011 149.393 57.2871C150.194 57.873 151.195 58.1176 152.176 57.9672L176.664 54.1152L176.035 78.896C176.011 79.8901 176.383 80.853 177.069 81.5732C177.754 82.2934 178.698 82.712 179.692 82.7371C180.686 82.7621 181.649 82.3916 182.37 81.7068C183.091 81.0221 183.511 80.0791 183.537 79.0851L184.279 49.8046C184.292 49.255 184.184 48.7092 183.964 48.2057C183.743 47.7022 183.414 47.2534 183.001 46.8908C182.588 46.5283 182.1 46.2609 181.572 46.1076C181.044 45.9542 180.489 45.9187 179.945 46.0034Z" fill="white"/>
</g>
<path d="M100.036 148.118L166.026 66" stroke="white" stroke-width="8" stroke-linecap="round" stroke-linejoin="round"/>
</svg>
